<svg xmlns="http://www.w3.org/2000/svg" width="200" height="200" viewBox="0 0 200 200"><g fill="#A21984"><path d="M128.4 40.3l-13.8 7.4c.6 1.2 1.1 2.4 1.6 3.6l13.2-8.5c-.2-.8-.6-1.7-1-2.5zM126.2 35.6l-12.7 9.9.8 1.6 12.8-9.6c-.2-.6-.6-1.3-.9-1.9zM130.6 45.9l-14 6.3c.5 1.2 1 2.5 1.4 3.7l13.6-6.9c-.3-1.1-.6-2.1-1-3.1zM120.5 65c.4 1.9.7 3.8 1 5.8l13.3-1.9-.3-4.9-14 1zM133.8 58.1l-14.3 2.6 1.1 4.3 13.8-3.1c-.2-1.3-.4-2.6-.6-3.8zM132.5 52l-14.2 4.8c.4 1.2.8 2.4 1.1 3.6l13.9-4.7c-.3-1.3-.5-2.5-.8-3.7z"/></g><g fill="#C8DF8E"><path d="M83.3 22l-7.9 13.5c1.1.7 2.2 1.5 3.2 2.2l6.8-14.2c-.7-.4-1.4-1-2.1-1.5zM78.9 19.2l-5.7 15c.5.3 1 .6 1.5 1l5.9-14.9c-.5-.4-1.1-.8-1.7-1.1zM88 25.6l-8.6 12.7c1.1.8 2.1 1.6 3.1 2.4l8-13c-.8-.7-1.6-1.4-2.5-2.1zM89.4 47.3c1.4 1.4 2.6 2.9 3.9 4.4l10.4-8.6c-.9-1.4-1.8-2.7-2.8-4l-11.5 8.2zM97.1 34.4l-10.8 9.7 3.2 3.1 10.1-9.9c-.8-.9-1.6-1.9-2.5-2.9zM92.8 29.9l-9.6 11.5c1 .8 1.9 1.6 2.8 2.5l9.4-11.3c-.8-1-1.7-1.9-2.6-2.7z"/></g><g fill="#C8DF8E"><path d="M48.4 28.7l-2.6 15.4 3.8.9 1.4-15.6c-.9-.2-1.8-.5-2.6-.7zM43.3 27.6v16.1c.6.1 1.2.2 1.8.4l.4-16c-.8-.2-1.5-.4-2.2-.5zM54.1 30.4l-3.6 14.9 3.8 1.2 2.9-15c-1-.3-2.1-.7-3.1-1.1zM63 50.2c1.8.9 3.5 1.8 5.2 2.8l6.7-11.7c-1.3-1-2.7-1.9-4.1-2.8l-7.8 11.7zM65.7 35.5l-6.8 12.9 4.1 1.8 6-12.8c-1.1-.7-2.2-1.3-3.3-1.9zM60 32.7l-5 14.1c1.2.4 2.4.9 3.5 1.3l4.9-13.9c-1.1-.4-2.2-1-3.4-1.5z"/></g><g fill="#A21984"><path stroke="#A21984" stroke-width=".292" d="M25.5 179.3c-.6.6-1.2 1.1-1.9 1.4-.7.3-1.4.5-2.2.5-1.2 0-2.2-.3-2.9-.9-.7-.6-1-1.4-1-2.5 0-1 .3-1.8.8-2.4.5-.6 1.4-1 2.4-1.3.5-.1 1.1-.2 1.9-.4 1.7-.3 2.7-.6 3-.9v-.6c0-1.3-.2-2.2-.7-2.8-.5-.6-1.3-.9-2.4-.9-.8 0-1.5.2-2.1.5-.6.3-1.1.8-1.6 1.5h-.2l.1-1.5c.6-.5 1.3-.9 2.1-1.2.8-.3 1.6-.4 2.5-.4 1.5 0 2.7.4 3.4 1.1.7.7 1.1 1.9 1.1 3.6v.3l-.1 4.8v.8c0 .8.1 1.3.3 1.5.2.2.5.4 1 .4h.5l.1.5h-.1c-1 .3-1.7.4-2.2.4-.5 0-.8-.1-1-.4-.5-.1-.7-.5-.8-1.1zm.1-5.3c-2.4.4-4 .8-4.7 1.3-.7.5-1.1 1.2-1.1 2.1 0 .8.2 1.5.7 2 .4.5 1 .7 1.8.7.5 0 1-.1 1.5-.3.5-.2 1-.5 1.3-.9.2-.2.3-.3.4-.5.1-.2.1-.4.1-.7v-3.7zM41.9 179.8c-.6.5-1.3.8-2.1 1.1-.8.2-1.7.3-2.7.3-2 0-3.6-.6-4.8-1.9-1.2-1.3-1.8-2.9-1.8-5s.6-3.8 1.9-5c1.3-1.3 3-1.9 5.1-1.9.8 0 1.6.1 2.3.3.8.2 1.5.5 2.2.8-.1.3-.3.7-.4 1.1-.1.4-.2.8-.3 1.3-.4-.9-.9-1.5-1.5-2-.6-.4-1.4-.7-2.3-.7-1.5 0-2.6.5-3.5 1.6-.8 1-1.2 2.5-1.2 4.4 0 1.8.4 3.3 1.3 4.3.9 1.1 2.1 1.6 3.6 1.6.8 0 1.5-.2 2.2-.5.7-.3 1.4-.8 2-1.5v1.7zM54.6 179.8c-.6.5-1.3.8-2.1 1.1-.8.2-1.7.3-2.7.3-2 0-3.6-.6-4.8-1.9-1.2-1.3-1.8-2.9-1.8-5s.6-3.8 1.9-5c1.3-1.3 3-1.9 5.1-1.9.8 0 1.6.1 2.3.3.8.2 1.5.5 2.2.8-.1.3-.3.7-.4 1.1-.1.4-.2.8-.3 1.3-.4-.9-.9-1.5-1.5-2-.6-.4-1.4-.7-2.3-.7-1.5 0-2.6.5-3.5 1.6-.8 1-1.2 2.5-1.2 4.4 0 1.8.4 3.3 1.3 4.3.9 1.1 2.1 1.6 3.6 1.6.8 0 1.5-.2 2.2-.5.7-.3 1.4-.8 2-1.5v1.7zM57 180.9c0-.7.1-1.5.1-2.6v-16.6c0-.7 0-1.4-.1-1.9h2.4c-.1.9-.1 2-.1 3.1v13.4c0 1.9.1 3.4.1 4.5-.2 0-.4 0-.6-.1h-1.2c-.2.2-.4.2-.6.2zM69.9 179.3c-.6.6-1.2 1.1-1.9 1.4-.7.3-1.4.5-2.2.5-1.2 0-2.2-.3-2.9-.9-.7-.6-1-1.4-1-2.5 0-1 .3-1.8.8-2.4.5-.6 1.3-1 2.4-1.3.5-.1 1.1-.2 1.9-.4 1.7-.3 2.7-.6 3-.9v-.6c0-1.3-.2-2.2-.7-2.8-.5-.6-1.3-.9-2.4-.9-.8 0-1.5.2-2.1.5-.6.3-1.1.8-1.6 1.5h-.2l.1-1.5c.6-.5 1.3-.9 2.1-1.2.8-.3 1.6-.4 2.5-.4 1.5 0 2.7.4 3.4 1.1.7.7 1.1 1.9 1.1 3.6v.3l-.1 4.8v.8c0 .8.1 1.3.3 1.5.2.2.5.4 1 .4h.5l.1.5h-.1c-1 .3-1.7.4-2.2.4-.5 0-.8-.1-1-.4-.5-.1-.7-.5-.8-1.1zm.1-5.3c-2.4.4-4 .8-4.7 1.3-.7.5-1.1 1.2-1.1 2.1 0 .8.2 1.5.7 2 .4.5 1 .7 1.8.7.5 0 1-.1 1.5-.3.5-.2 1-.5 1.3-.9.2-.2.3-.3.4-.5.1-.2.1-.4.1-.7v-3.7zM75.9 162.8c0-.4.1-.7.4-1 .3-.3.6-.4 1-.4s.7.1 1 .4c.3.3.4.6.4 1s-.1.7-.4 1c-.3.3-.6.4-1 .4s-.7-.1-1-.4c-.3-.3-.4-.6-.4-1zm.2 18.1c0-1.3.1-2.5.1-3.7v-6.3c0-1-.1-2.1-.1-3.3.2 0 .4.1.5.1h1.2c.2 0 .4 0 .5-.1 0 1.2-.1 2.3-.1 3.3v6.3c0 1.1.1 2.4.1 3.6l-.6-.1h-1.1c0 .2-.2.2-.5.2zM82.2 180.9c0-.4.1-.9.1-1.4v-10.399999999999999c0-.6 0-1-.1-1.4l.5.1h1.2l.5-.1v2.4c.7-.9 1.4-1.6 2.1-2 .7-.4 1.5-.6 2.3-.6.9 0 1.7.3 2.4.8s1.1 1.2 1.4 2.1c.6-.9 1.2-1.6 1.9-2.1s1.6-.7 2.5-.7c1.3 0 2.4.4 3.1 1.2.8.8 1.1 2 1.1 3.5 0 .1 0 .7-.1 1.8 0 1.1-.1 2.2-.1 3.2v1.8c0 .6 0 1.3.1 2-.1 0-.3 0-.4-.1h-1.4c-.2 0-.3 0-.4.1.1-1.2.1-2.4.1-3.6v-4.2c0-1.5-.2-2.6-.7-3.3-.5-.7-1.3-1-2.4-1-1.2 0-2 .5-2.5 1.5s-.7 2.9-.7 5.7v4.9c-.2 0-.4 0-.6-.1h-1.2c-.2 0-.4 0-.5.1.1-1 .1-2.1.1-3.4v-4.1c0-1.7-.2-2.8-.6-3.5-.4-.7-1.2-1-2.2-1-.5 0-1 .1-1.4.3-.4.2-.8.5-1.1.8-.4.4-.6 1.1-.8 1.8-.2.8-.2 2.2-.2 4.2v2.5l.1 2.4c-.2 0-.4 0-.6-.1h-1.2c.1-.1-.1-.1-.3-.1z"/><path d="M113.1 188.6c0-.8 0-2 .1-3.4v-14c0-1.3-.1-2.4-.1-3.5.1 0 .3.1.5.1h1.1c.2 0 .4 0 .6-.1 0 .3-.1.7-.1 1.1v1.4c.6-1 1.2-1.7 2-2.1.8-.5 1.7-.7 2.7-.7 1.8 0 3.2.6 4.2 1.8 1 1.2 1.5 2.9 1.5 5.2 0 2.1-.5 3.8-1.6 5-1.1 1.3-2.5 1.9-4.3 1.9-1 0-1.8-.2-2.5-.6-.7-.4-1.3-1-1.8-1.8v3.4c0 .2 0 1.3.1 3.1 0 1.3.1 2.4.1 3.2l-.6-.1h-1.1c-.4 0-.6.1-.8.1zm2-14.3c0 1.9.3 3.4 1 4.4.7 1 1.7 1.5 3 1.5s2.3-.5 3-1.5c.7-1 1-2.5 1-4.4 0-1.8-.4-3.2-1.1-4.2-.7-1-1.7-1.5-3-1.5s-2.2.5-3 1.5c-.5 1-.9 2.4-.9 4.2zM128.2 162.8c0-.4.1-.7.4-1 .3-.3.6-.4 1-.4s.7.1 1 .4c.3.3.4.6.4 1s-.1.7-.4 1c-.3.3-.6.4-1 .4s-.7-.1-1-.4c-.3-.3-.4-.6-.4-1zm.3 18.1c0-1.3.1-2.5.1-3.7v-6.3c0-1-.1-2.1-.1-3.3.2 0 .4.1.5.1h1.2c.2 0 .4 0 .5-.1 0 1.2-.1 2.3-.1 3.3v6.3c0 1.1.1 2.4.1 3.6l-.6-.1h-1.1c-.1.2-.3.2-.5.2zM134.5 180.9c0-.7.1-1.5.1-2.6v-16.6c0-.7 0-1.4-.1-1.9h2.4c-.1.9-.1 2-.1 3.1v13.4c0 1.9.1 3.4.1 4.5-.2 0-.4 0-.6-.1h-1.2c-.2.2-.4.2-.6.2zM147.4 179.3c-.6.6-1.2 1.1-1.9 1.4-.7.3-1.4.5-2.2.5-1.2 0-2.2-.3-2.9-.9-.7-.6-1-1.4-1-2.5 0-1 .3-1.8.8-2.4.5-.6 1.4-1 2.4-1.3.5-.1 1.1-.2 1.9-.4 1.7-.3 2.7-.6 3-.9v-.6c0-1.3-.2-2.2-.7-2.8-.5-.6-1.3-.9-2.4-.9-.8 0-1.5.2-2.1.5-.6.3-1.1.8-1.6 1.5h-.2l.1-1.5c.6-.5 1.3-.9 2.1-1.2.8-.3 1.6-.4 2.5-.4 1.5 0 2.7.4 3.4 1.1.7.7 1.1 1.9 1.1 3.6v.3l-.1 4.8v.8c0 .8.1 1.3.3 1.5.2.2.5.4 1 .4h.5l.1.5h-.1c-1 .3-1.7.4-2.2.4-.5 0-.8-.1-1-.4-.5-.1-.7-.5-.8-1.1zm0-5.3c-2.4.4-4 .8-4.7 1.3-.7.5-1.1 1.2-1.1 2.1 0 .8.2 1.5.7 2 .4.5 1 .7 1.8.7.5 0 1-.1 1.5-.3.5-.2 1-.5 1.3-.9.2-.2.3-.3.4-.5.1-.2.1-.4.1-.7v-3.7zM151.7 168.9v-1.2h1.8v-3.3l1.2-.3c.4-.1.7-.3 1-.4 0 .6 0 1.1-.1 1.5v2.5999999999999996h1.7c.6 0 1.3-.1 2-.1 0 .1 0 .3-.1.4v.7c-.5 0-1 0-1.4-.1h-2.1999999999999997v1.4c0 .5 0 1.5-.1 3 0 1.4-.1 2.6-.1 3.5 0 1.3.2 2.2.5 2.7.4.5 1 .8 1.8.8.2 0 .5 0 .9-.2.3-.1.7-.2 1.1-.4l.2.6c-.5.3-1 .5-1.5.7-.5.2-1.1.2-1.6.2-1.3 0-2.2-.3-2.7-.9-.6-.6-.8-1.6-.8-2.9 0-.3 0-1.3.1-3s.1-3.3.1-4.7v-1h-1c-.3.3-.6.3-.8.4zM171.5 179.6c-.7.5-1.5.9-2.3 1.2-.8.3-1.6.4-2.5.4-2 0-3.6-.6-4.8-1.9-1.2-1.3-1.8-2.9-1.8-4.9 0-2.1.6-3.8 1.8-5 1.2-1.3 2.7-1.9 4.7-1.9 1.8 0 3.2.5 4.2 1.6s1.5 2.6 1.5 4.5v.6h-9.7v.1c0 1.9.4 3.3 1.2 4.3.8 1 2 1.5 3.5 1.5.8 0 1.6-.2 2.3-.5.7-.3 1.4-.8 2-1.4v1.4000000000000001zm-8.9-6.4h7.4v-.5c0-1.4-.3-2.5-.9-3.2-.6-.8-1.5-1.2-2.6-1.2s-2 .5-2.7 1.4c-.8.8-1.1 2-1.2 3.5zM174.6 178c.5.7 1 1.2 1.5 1.6.6.4 1.2.5 1.9.5.8 0 1.5-.2 2-.7.5-.5.7-1.1.7-1.9 0-.6-.2-1.1-.5-1.4-.3-.3-.9-.6-1.7-.9l-1.3-.4c-1.1-.3-1.9-.7-2.3-1.3-.5-.6-.7-1.3-.7-2.3 0-1.2.4-2.1 1.2-2.8.8-.7 1.8-1.1 3.1-1.1.7 0 1.3.1 1.9.2.6.2 1.1.4 1.6.7l-.3.9c-.1.3-.2.6-.2.9-.5-.6-1.1-1.1-1.6-1.4-.5-.3-1.1-.5-1.6-.5-.7 0-1.3.2-1.7.7-.4.4-.7 1-.7 1.7 0 .6.2 1.1.5 1.5.3.4.9.7 1.6.9l1.9.6c1 .3 1.6.7 2.1 1.2.4.5.6 1.2.6 2.1 0 1.3-.5 2.3-1.4 3.2-.9.8-2.1 1.2-3.6 1.2-.7 0-1.4-.1-2-.3-.6-.2-1.2-.4-1.6-.7l.4-1.1c0-.4.1-.7.2-1.1z"/></g><g fill="#C8DF8E"><path d="M75.3 147.3c17.4.9 34-4.1 47.6-13.3l-2.6-3.1 2.9 2.9c1.7-1.2 3.4-2.4 5-3.7l-4.1-4.4 4.5 4.1c1.4-1.2 2.8-2.4 4.2-3.7l-5.9-5.5 6.5 5c1.3-1.2 2.6-2.5 3.8-3.9l-7.6-6.5 8.2 5.8c1.1-1.2 2.2-2.5 3.2-3.8l-9.2-7.1 9.9 6.3 2.7-3.7-11.4-7c-11.6 22.2-33 37.8-57.7 41.6zM155.9 84.7l-15.6-1.8c-.2 1.3-.5 2.6-.7 3.8l15.7.6c.2-.8.4-1.7.6-2.6zM156.8 79.6l-16 .8-.3 1.8 16-.5.3-2.1zM154.5 90.5l-15.1-2.8c-.3 1.3-.6 2.6-1 3.9l15.1 2.1c.4-1.1.7-2.2 1-3.2zM135.3 100.4c-.8 1.8-1.6 3.6-2.5 5.3l12.1 6.1 2.6-4.2-12.2-7.2zM150.1 102.3l-13.2-6.1c-.5 1.4-1 2.8-1.6 4.2l13.1 5.3c.6-1.1 1.2-2.2 1.7-3.4zM152.5 96.5l-14.4-4.2c-.4 1.2-.7 2.4-1.2 3.6l14.1 4.1c.6-1.1 1.1-2.3 1.5-3.5z"/></g><circle fill="#A21984" cx="113.5" cy="23.5" r="12.1"/><path fill="#A21984" d="M98.1 137.8c14.8-9.2 25.5-22.8 31.5-38.1l-3.9-1.1 4 .7c.7-1.9 1.4-3.9 2-5.9l-5.9-1.3 6 .8c.5-1.8 1-3.6 1.3-5.4l-8-1.1 8.2.4c.4-1.8.7-3.5.9-5.3l-9.9-1 10 .1c.2-1.7.3-3.3.4-5l-11.7-.6 11.7-.4c.1-1.5.1-3 .1-4.6l-13.4.7c3.4 24.8-5.2 49.8-23.3 67.1z"/><path fill="#C8DF8E" d="M108.4 121c7.8-15.6 9.9-32.8 6.9-48.9l-3.9 1.1 3.8-1.5c-.4-2-.8-4-1.4-6l-5.7 2 5.5-2.5c-.5-1.8-1.1-3.6-1.7-5.3l-7.5 3.2 7.2-3.9c-.6-1.7-1.3-3.3-2-5l-9 4.3 8.6-5.1c-.7-1.5-1.4-3-2.2-4.5l-10.2 5.6 9.8-6.5c-.7-1.3-1.5-2.6-2.3-3.9l-11 7.6c15.7 19.3 21.4 45.1 15.1 69.3zM106.6 112.6c1.8-17.3-2.2-34.1-10.7-48.3l-3.2 2.4 3-2.7c-1.1-1.8-2.2-3.5-3.4-5.2l-4.6 3.8 4.3-4.3c-1.1-1.5-2.2-3-3.4-4.4l-5.9 5.6 5.4-6.2c-1.2-1.4-2.4-2.7-3.6-4l-6.9 7.2 6.3-7.8c-1.2-1.2-2.4-2.3-3.7-3.4l-7.6 8.8 6.9-9.5-3.6-2.9-7.6 11c21.4 12.8 35.7 35 38.3 59.9z"/></svg>