<svg xmlns="http://www.w3.org/2000/svg" width="350" height="410" viewBox="0 0 350 410"><g opacity=".05" fill="#231F20"><path d="M182.2 23.1c7.9-18.4 29.3-26.9 47.6-18.9 18.4 7.9 26.8 29.3 18.9 47.6-7.9 18.4-29.3 26.9-47.6 18.9-18.3-7.9-26.8-29.2-18.9-47.6zM100.8 408.5c52.2 2.7 101.8-12.2 142.7-39.7l-7.7-9.3 8.6 8.7c5.1-3.5 10.1-7.2 14.9-11l-12.2-13.3 13.5 12.3c4.3-3.5 8.5-7.2 12.6-11l-17.8-16.6 19.4 15.1c3.9-3.7 7.6-7.6 11.3-11.5l-22.7-19.5 24.4 17.5c3.3-3.7 6.5-7.6 9.6-11.5l-27.6-21.4 29.5 19c2.8-3.6 5.4-7.3 8-11.2l-34.2-21.1c-34 66.3-98.2 112.9-172.3 124.5zM342.5 220.8l-46.6-5.4c-.7 3.9-1.4 7.7-2.2 11.5l47.1 1.8c.6-2.6 1.2-5.2 1.7-7.9zM345.1 205.4l-48.1 2.5c-.2 1.8-.5 3.6-.8 5.3l47.9-1.5c.4-2.1.7-4.2 1-6.3zM338.3 238.2l-45.3-8.4c-.9 3.9-1.9 7.7-3 11.5l45.4 6.3c1-3.1 2-6.2 2.9-9.4zM280.6 268c-2.3 5.4-4.8 10.7-7.4 15.9l36.1 18.1c2.7-4.1 5.2-8.3 7.7-12.6l-36.4-21.4zM325.1 273.6l-39.6-18.1c-1.5 4.2-3.1 8.4-4.8 12.5l39.3 16c1.8-3.4 3.5-6.9 5.1-10.4zM332.4 256.3l-43-12.6c-1.1 3.6-2.2 7.2-3.5 10.7l42.3 12.3c1.5-3.4 2.9-6.9 4.2-10.4zM169.3 380c44.3-27.7 76.6-68.2 94.4-114.2l-11.6-3.2 12 2.2c2.2-5.8 4.2-11.7 5.9-17.6l-17.6-3.9 18 2.4c1.5-5.3 2.9-10.8 4-16.2l-24.1-3.4 24.5 1.3c1.1-5.3 2-10.6 2.7-15.9l-29.7-3 30 .4c.6-5 1-9.9 1.3-14.9l-34.9-1.8 35.1-1.3c.2-4.6.2-9.1.2-13.7l-40.1 2.2c10 73.7-16 148.7-70.1 200.6zM260.2 87.8l-41.3 22.3c1.7 3.5 3.3 7.1 4.8 10.7l39.7-25.5-3.2-7.5zM253.5 73.7l-38 29.5 2.4 4.8 38.5-28.7c-1-1.8-1.9-3.7-2.9-5.6zM266.7 104.4l-42 19c1.5 3.7 2.9 7.4 4.2 11.2l40.9-20.7c-1-3.2-2-6.4-3.1-9.5zM236.4 161.9c1.2 5.8 2.2 11.5 3 17.3l40-5.8c-.2-4.9-.5-9.8-.9-14.7l-42.1 3.2zM276.1 141.1l-42.9 7.8c1.2 4.3 2.2 8.6 3.2 13l41.4-9.4c-.4-3.8-1-7.6-1.7-11.4zM272.2 122.7l-42.5 14.3c1.2 3.6 2.3 7.2 3.3 10.8l41.8-14.1c-.8-3.7-1.7-7.3-2.6-11zM200 329.6c23.3-46.7 29.6-98.2 20.8-146.7l-11.6 3.3 11.4-4.4c-1.1-6.1-2.5-12.1-4.1-18.1l-17.1 5.9 16.6-7.4c-1.5-5.4-3.2-10.7-5-15.9l-22.3 9.7 21.6-11.7c-1.8-5-3.9-10-6.1-15l-26.9 13 25.8-15.4c-2.1-4.5-4.3-9-6.7-13.4l-30.7 16.7 29.2-19.5c-2.2-4-4.6-7.9-7-11.8l-33 22.8c47.1 57.9 64.1 135.5 45.1 207.9zM124.8 33l-23.6 40.6c3.3 2.1 6.5 4.3 9.7 6.6l20.5-42.5c-2.2-1.5-4.3-3.1-6.6-4.7zM111.8 24.5l-17 45.1 4.6 2.8 17.8-44.5c-1.8-1.2-3.6-2.3-5.4-3.4zM139.1 43.8l-25.9 38.1c3.2 2.4 6.3 4.8 9.4 7.3l24-39-7.5-6.4zM143.3 108.6c4.1 4.3 7.9 8.7 11.6 13.2l31.1-25.8c-2.7-4.1-5.5-8.1-8.5-12.1l-34.2 24.7zM166.3 70.1l-32.5 29c3.3 3.1 6.4 6.2 9.5 9.4l30.4-29.5c-2.4-3-4.9-6-7.4-8.9zM153.3 56.5l-28.8 34.4c2.9 2.4 5.7 4.9 8.4 7.5l28.2-33.9c-2.5-2.7-5.1-5.4-7.8-8zM194.7 304.5c5.5-52-6.7-102.3-32-144.6l-9.7 7.1 9.1-8.1c-3.2-5.3-6.6-10.5-10.2-15.5l-13.9 11.5 13-12.8c-3.3-4.5-6.7-8.9-10.3-13.1l-17.5 16.9 16.1-18.5c-3.5-4.1-7.1-8-10.9-11.9l-20.7 21.5 18.8-23.4c-3.5-3.5-7.2-6.9-11-10.2l-22.9 26.5 20.5-28.5c-3.5-3-7.1-5.8-10.7-8.6l-22.9 33c64.4 37.5 107.6 104.1 115.2 178.7zM20.2 53.1l-7.9 46.3c3.8.9 7.6 1.8 11.4 2.8l4.3-47-7.8-2.1zM5 49.7l-.1 48.2c1.8.3 3.5.7 5.3 1.1l1.1-47.9c-2.1-.6-4.2-1-6.3-1.4zM37.3 58.2l-10.8 44.8c3.8 1.1 7.6 2.3 11.4 3.6l8.8-45c-3.1-1.2-6.2-2.3-9.4-3.4zM64 117.4c5.3 2.6 10.4 5.3 15.5 8.3l20.1-35.1c-4-2.9-8-5.7-12.2-8.3l-23.4 35.1zM72.1 73.3l-20.2 38.6c4.1 1.7 8.2 3.6 12.2 5.5l18-38.4c-3.3-2-6.7-3.9-10-5.7zM55.2 65.1l-14.9 42.3c3.6 1.3 7.1 2.6 10.5 4l14.6-41.6c-3.4-1.6-6.8-3.2-10.2-4.7z"/></g></svg>