<?xml version="1.0" encoding="utf-8"?>
<!-- Generator: Adobe Illustrator 19.1.0, SVG Export Plug-In . SVG Version: 6.00 Build 0)  -->
<!DOCTYPE svg PUBLIC "-//W3C//DTD SVG 1.1//EN" "http://www.w3.org/Graphics/SVG/1.1/DTD/svg11.dtd">
<svg version="1.1" id="Layer_1" xmlns="http://www.w3.org/2000/svg" xmlns:xlink="http://www.w3.org/1999/xlink" x="0px" y="0px"
	 width="100px" height="100px" viewBox="0 0 100 100" enable-background="new 0 0 100 100" xml:space="preserve">
<g>
	<circle fill="#7C7C7C" cx="50" cy="50" r="37.5"/>
	<g>
		<path fill="#FFFFFF" d="M21.8,58.3c0.3-0.1,0.6,0.1,0.7,0.3l0.5,1.5c0.1,0.3,0,0.6-0.3,0.7c-0.3,0.1-0.5,0-0.6-0.3l-0.4-1
			l-0.8,0.3l0.3,0.9c0.1,0.3,0,0.6-0.3,0.7c-0.3,0.1-0.5,0-0.6-0.3L19.9,60l-0.8,0.3l0.4,1.1c0.1,0.3,0,0.6-0.3,0.7
			c-0.3,0.1-0.5,0-0.6-0.3L18,60.1c-0.1-0.3,0-0.6,0.3-0.7L21.8,58.3z"/>
		<path fill="#FFFFFF" d="M24,63.5c0.3,0,0.6,0.1,0.7,0.3c0.2,0.3,0,0.6-0.2,0.7c-0.2,0.1-0.3,0.1-0.5,0l-1.5-0.3L21.6,66
			c-0.1,0.3-0.2,0.3-0.4,0.4c-0.3,0.1-0.6,0-0.7-0.2c-0.1-0.2-0.1-0.3,0.1-0.6l0.8-1.5l-1.6-0.3c-0.3-0.1-0.4-0.2-0.5-0.3
			c-0.1-0.3,0-0.6,0.2-0.7c0.2-0.1,0.3-0.1,0.6,0l1.9,0.3l0.7-1.4c0.1-0.2,0.2-0.3,0.3-0.4c0.2-0.1,0.5-0.1,0.7,0.3
			c0.1,0.3,0,0.5-0.2,0.8L23,63.3L24,63.5z"/>
		<path fill="#FFFFFF" d="M24.8,65.3c0.3-0.2,0.6-0.1,0.7,0.1l0.9,1.4c0.2,0.3,0.1,0.6-0.1,0.7c-0.3,0.2-0.5,0.1-0.7-0.2L25,66.4
			l-0.7,0.5l0.6,0.8c0.2,0.3,0.1,0.5-0.1,0.7c-0.3,0.2-0.5,0.1-0.7-0.2l-0.6-0.8l-0.7,0.5l0.6,0.9c0.2,0.3,0.1,0.5-0.1,0.7
			c-0.2,0.2-0.5,0.1-0.7-0.2L21.7,68c-0.2-0.2-0.1-0.5,0.1-0.7L24.8,65.3z"/>
		<path fill="#FFFFFF" d="M26.7,68c0.3-0.2,0.6-0.2,0.7,0.1l0.8,1c0.6,0.7,0.6,1.6-0.1,2.1c-0.5,0.5-1.2,0.5-1.7,0l-0.1,1.4
			c0,0.2-0.1,0.4-0.2,0.5c-0.1,0.1-0.5,0.2-0.7-0.1c-0.2-0.2-0.2-0.3-0.1-0.6l0.4-2.1l0,0l-1,0.9c-0.3,0.2-0.6,0.2-0.8,0
			c-0.2-0.2-0.2-0.5,0.1-0.8L26.7,68z M26.3,69.8l0.5,0.5c0.2,0.3,0.5,0.3,0.8,0.1c0.2-0.2,0.2-0.5,0-0.7l-0.5-0.5L26.3,69.8z"/>
		<path fill="#FFFFFF" d="M31.4,72c0.5,0.4,0.9,1.1,0.6,1.5c-0.2,0.2-0.5,0.3-0.7,0.1c-0.2-0.2-0.2-0.5-0.5-0.8
			c-0.6-0.6-1.4-0.3-1.8,0.3c-0.5,0.6-0.6,1.3-0.1,1.8c0.5,0.4,0.7,0.3,0.9,0.5c0.3,0.3,0.1,0.6,0,0.7c-0.4,0.4-1.2,0-1.6-0.4
			c-1.1-1-1-2.3-0.1-3.3C29,71.2,30.4,71.1,31.4,72z"/>
		<path fill="#FFFFFF" d="M31.4,77.3c-0.2,0.3-0.5,0.3-0.8,0.2c-0.3-0.2-0.3-0.5-0.1-0.8l2.1-3c0.2-0.3,0.5-0.3,0.8-0.2
			c0.3,0.2,0.3,0.5,0.1,0.8L31.4,77.3z"/>
		<path fill="#FFFFFF" d="M33.1,77.6c0.2,0.1,0.4,0.5,0.9,0.8c0.4,0.2,0.6,0.1,0.7-0.1c0.2-0.3-0.1-0.6-0.6-1
			c-0.4-0.4-0.8-0.9-0.4-1.6c0.5-0.9,1.4-0.9,2.2-0.5c0.7,0.4,1,0.9,0.8,1.3c-0.1,0.3-0.4,0.3-0.7,0.2c-0.3-0.2-0.3-0.4-0.7-0.6
			c-0.3-0.1-0.5-0.1-0.6,0.1c-0.1,0.2,0.1,0.4,0.6,1c0.4,0.4,0.8,1,0.3,1.8c-0.5,0.9-1.5,1-2.3,0.5c-0.5-0.3-1.2-1-1-1.4
			C32.5,77.6,32.8,77.4,33.1,77.6z"/>
		<path fill="#FFFFFF" d="M37.6,76.7c0.1-0.3,0.4-0.4,0.7-0.3l1.5,0.6c0.3,0.1,0.4,0.4,0.3,0.7C40,78,39.8,78.1,39.5,78l-1-0.4
			l-0.3,0.8l0.9,0.4c0.3,0.1,0.4,0.4,0.3,0.7c-0.1,0.3-0.4,0.4-0.7,0.3l-0.9-0.4L37.4,80l1,0.4c0.3,0.1,0.4,0.4,0.3,0.7
			c-0.1,0.3-0.4,0.4-0.7,0.3l-1.5-0.6c-0.3-0.1-0.4-0.4-0.3-0.7L37.6,76.7z"/>
		<path fill="#FFFFFF" d="M43,78.6c0.1-0.3,0.4-0.5,0.6-0.4l1.3,0.2c0.8,0.2,1.5,0.8,1.3,1.9c-0.2,0.9-0.8,1.5-1.8,1.3l-0.8-0.1
			l-0.2,1c-0.1,0.4-0.3,0.5-0.6,0.5c-0.3-0.1-0.5-0.3-0.4-0.7L43,78.6z M43.7,80.5l0.6,0.1c0.4,0.1,0.7-0.2,0.8-0.5
			c0.1-0.4-0.2-0.7-0.6-0.8l-0.6-0.1L43.7,80.5z"/>
		<path fill="#FFFFFF" d="M46.9,79.3c0-0.3,0.3-0.5,0.6-0.5l1.3,0.1c0.9,0,1.5,0.7,1.5,1.5c0,0.7-0.5,1.2-1.2,1.3l0.9,1
			c0.1,0.2,0.2,0.3,0.2,0.5c0,0.2-0.2,0.5-0.6,0.5c-0.3,0-0.4-0.1-0.5-0.3l-1.2-1.7h0L47.8,83c0,0.4-0.3,0.6-0.6,0.5
			c-0.3,0-0.5-0.2-0.5-0.6L46.9,79.3z M47.9,80.8l0.7,0c0.3,0,0.6-0.2,0.6-0.5c0-0.3-0.2-0.5-0.5-0.5l-0.7,0L47.9,80.8z"/>
		<path fill="#FFFFFF" d="M55.5,80.8c0.2,1.5-0.7,2.5-2,2.7c-1.4,0.1-2.4-0.7-2.5-2.2c-0.2-1.5,0.7-2.5,2-2.7
			C54.4,78.5,55.4,79.3,55.5,80.8z M52.1,81.2c0.1,0.7,0.5,1.4,1.3,1.3c0.8-0.1,1.1-0.8,1-1.6c-0.1-0.7-0.5-1.4-1.3-1.3
			C52.3,79.7,52,80.4,52.1,81.2z"/>
		<path fill="#FFFFFF" d="M55.9,78.8c-0.1-0.3,0.1-0.6,0.4-0.6l1.6-0.4c0.3-0.1,0.6,0.1,0.6,0.3c0.1,0.3-0.1,0.5-0.4,0.6L57.1,79
			l0.2,0.8l0.9-0.2c0.3-0.1,0.6,0.1,0.6,0.3c0.1,0.3-0.1,0.5-0.4,0.6l-0.9,0.2l0.3,1.3c0.1,0.4-0.1,0.6-0.4,0.7
			c-0.3,0.1-0.6-0.1-0.7-0.4L55.9,78.8z"/>
		<path fill="#FFFFFF" d="M59.1,78c-0.1-0.3,0.1-0.6,0.3-0.7l1.5-0.6c0.3-0.1,0.6,0,0.7,0.3c0.1,0.3,0,0.5-0.3,0.6l-1,0.4l0.3,0.8
			l0.9-0.4c0.3-0.1,0.6,0,0.7,0.3c0.1,0.3,0,0.5-0.3,0.6l-0.9,0.4l0.3,0.8l1.1-0.4c0.3-0.1,0.6,0,0.7,0.3c0.1,0.3,0,0.5-0.3,0.6
			l-1.6,0.6c-0.3,0.1-0.6,0-0.7-0.3L59.1,78z"/>
		<path fill="#FFFFFF" d="M63.8,79.2c0.2-0.1,0.7,0,1.1-0.3c0.4-0.2,0.4-0.4,0.3-0.6c-0.2-0.3-0.6-0.2-1.2-0.1
			c-0.6,0.1-1.2,0.1-1.6-0.6c-0.5-0.9,0-1.7,0.8-2.1c0.8-0.4,1.3-0.3,1.5,0c0.1,0.3,0.1,0.5-0.2,0.7c-0.3,0.2-0.5,0.1-0.9,0.3
			c-0.3,0.1-0.4,0.4-0.3,0.6c0.1,0.2,0.4,0.1,1.1,0c0.6-0.1,1.2-0.1,1.6,0.7c0.5,1,0,1.8-0.9,2.2c-0.6,0.3-1.5,0.5-1.7,0
			C63.5,79.7,63.5,79.4,63.8,79.2z"/>
		<path fill="#FFFFFF" d="M67.5,77.2c0.2-0.1,0.6-0.1,1.1-0.4c0.3-0.2,0.3-0.5,0.2-0.7c-0.2-0.3-0.6-0.1-1.2,0.1
			c-0.6,0.2-1.2,0.3-1.6-0.4c-0.6-0.8-0.2-1.7,0.5-2.2c0.7-0.5,1.3-0.5,1.5-0.2c0.2,0.2,0.1,0.5-0.1,0.7c-0.3,0.2-0.5,0.1-0.8,0.4
			c-0.2,0.2-0.3,0.4-0.2,0.6c0.2,0.2,0.4,0.1,1.1-0.1c0.6-0.2,1.2-0.3,1.7,0.5c0.6,0.9,0.2,1.7-0.6,2.3c-0.5,0.4-1.4,0.7-1.7,0.3
			C67.2,77.7,67.2,77.4,67.5,77.2z"/>
		<path fill="#FFFFFF" d="M71.9,74.7c0.2,0.3,0.2,0.6,0,0.8c-0.2,0.2-0.5,0.2-0.8-0.1l-2.4-2.7c-0.2-0.3-0.2-0.6,0-0.8
			c0.2-0.2,0.5-0.2,0.8,0.1L71.9,74.7z"/>
		<path fill="#FFFFFF" d="M74.6,69.4c1.1,1,1.2,2.3,0.3,3.3c-0.9,1-2.3,1-3.3,0c-1.1-1-1.2-2.3-0.3-3.3
			C72.2,68.4,73.5,68.4,74.6,69.4z M72.3,71.9c0.5,0.5,1.3,0.7,1.9,0.1c0.6-0.6,0.3-1.3-0.3-1.8c-0.5-0.5-1.3-0.7-1.9-0.1
			C71.4,70.7,71.7,71.4,72.3,71.9z"/>
		<path fill="#FFFFFF" d="M73.6,67.7c-0.3-0.2-0.4-0.5-0.2-0.8c0.2-0.2,0.3-0.3,0.9-0.3l2.8-0.3l0,0l-1.9-1.2
			c-0.3-0.2-0.4-0.5-0.2-0.8c0.2-0.3,0.4-0.3,0.8-0.1l3,2c0.3,0.2,0.4,0.5,0.2,0.8c-0.2,0.2-0.3,0.3-0.9,0.3l-2.8,0.3l0,0l1.9,1.2
			c0.3,0.2,0.4,0.5,0.2,0.8c-0.2,0.3-0.4,0.3-0.8,0.1L73.6,67.7z"/>
		<path fill="#FFFFFF" d="M76.8,62.9c-0.4-0.4-0.7-0.7-0.5-1.2c0.2-0.5,0.7-0.5,1.2-0.4l2.9,0.2c0.4,0,0.5,0.1,0.7,0.1
			c0.2,0.1,0.3,0.4,0.2,0.6c-0.1,0.3-0.4,0.3-0.7,0.3l-0.4-0.1l-0.7,1.6l0.3,0.3c0.2,0.2,0.4,0.4,0.2,0.7c-0.1,0.3-0.4,0.4-0.6,0.3
			c-0.1-0.1-0.3-0.1-0.5-0.4L76.8,62.9z M77.4,62.2L77.4,62.2l1.3,1.2l0.5-1L77.4,62.2z"/>
		<path fill="#FFFFFF" d="M77.8,59.6c-0.4-0.1-0.5-0.4-0.4-0.7c0.1-0.3,0.3-0.5,0.7-0.3l3,0.9l0.3-1.1c0.1-0.3,0.3-0.5,0.6-0.4
			c0.3,0.1,0.4,0.3,0.3,0.7l-0.5,1.6c-0.1,0.3-0.3,0.5-0.7,0.4L77.8,59.6z"/>
	</g>
	<g>
		<path fill="#FFFFFF" d="M28.7,24.5c-0.2-0.3-0.1-0.6,0.1-0.8l1-0.8c0.8-0.6,1.6-0.5,2.2,0.2c0.4,0.6,0.4,1.2-0.1,1.7l1.4,0.2
			c0.2,0,0.4,0.1,0.5,0.2c0.1,0.1,0.2,0.5-0.1,0.7c-0.2,0.2-0.4,0.1-0.6,0.1l-2.1-0.5l0,0l0.8,1.1c0.2,0.3,0.2,0.6-0.1,0.8
			c-0.3,0.2-0.5,0.2-0.8-0.1L28.7,24.5z M30.4,25.1l0.6-0.4c0.3-0.2,0.3-0.5,0.1-0.8c-0.2-0.3-0.5-0.3-0.8-0.1l-0.6,0.4L30.4,25.1z"
			/>
		<path fill="#FFFFFF" d="M33,21.5c-0.2-0.3,0-0.6,0.2-0.7l1.5-0.8c0.3-0.2,0.6-0.1,0.7,0.2c0.1,0.3,0.1,0.5-0.2,0.7l-1,0.5l0.4,0.8
			l0.9-0.5c0.3-0.2,0.6-0.1,0.7,0.2c0.1,0.3,0.1,0.5-0.2,0.7L35.1,23l0.4,0.8l1-0.6c0.3-0.2,0.6-0.1,0.7,0.2
			c0.1,0.3,0.1,0.5-0.2,0.7l-1.5,0.8c-0.2,0.1-0.6,0.1-0.7-0.2L33,21.5z"/>
		<path fill="#FFFFFF" d="M41.2,19.4c0.4-0.1,0.6,0,0.8,0.4c0.4,1.2-0.1,2.4-1.3,2.9c-1.4,0.5-2.6-0.3-3-1.6
			c-0.5-1.4,0.1-2.7,1.4-3.1c0.8-0.3,1.9-0.2,2.1,0.4c0.1,0.3,0,0.5-0.3,0.6c-0.4,0.1-0.7-0.3-1.4,0c-0.7,0.2-0.9,1-0.7,1.8
			c0.2,0.7,0.8,1.3,1.6,1c0.5-0.2,0.8-0.7,0.7-1.2l-0.6,0.2c-0.3,0.1-0.6,0-0.7-0.3c-0.1-0.3,0-0.5,0.3-0.7L41.2,19.4z"/>
		<path fill="#FFFFFF" d="M44.9,21c0.1,0.4-0.1,0.6-0.4,0.7c-0.3,0.1-0.6-0.1-0.6-0.5l-0.7-3.6c-0.1-0.4,0.1-0.6,0.4-0.7
			c0.3-0.1,0.6,0.1,0.6,0.5L44.9,21z"/>
		<path fill="#FFFFFF" d="M46.5,20c0.3,0,0.6,0.2,1.2,0.2c0.4,0,0.6-0.3,0.5-0.5c0-0.4-0.4-0.4-1.1-0.6c-0.6-0.1-1.2-0.3-1.2-1.2
			c-0.1-1,0.7-1.6,1.6-1.6c0.9-0.1,1.4,0.2,1.4,0.6c0,0.3-0.2,0.5-0.4,0.5c-0.3,0-0.5-0.1-0.9-0.1c-0.3,0-0.5,0.2-0.5,0.4
			c0,0.3,0.3,0.3,1.1,0.5c0.6,0.2,1.2,0.4,1.3,1.3c0.1,1.1-0.7,1.6-1.7,1.7c-0.6,0-1.6-0.1-1.7-0.7C46,20.3,46.2,20,46.5,20z"/>
		<path fill="#FFFFFF" d="M51.7,17.3l-0.6,0c-0.4,0-0.5-0.2-0.5-0.5c0-0.3,0.2-0.5,0.6-0.5l2.3,0.2c0.4,0,0.5,0.2,0.5,0.5
			c0,0.3-0.2,0.5-0.6,0.5l-0.6,0l-0.2,3.2c0,0.4-0.3,0.6-0.6,0.5c-0.3,0-0.5-0.2-0.5-0.6L51.7,17.3z"/>
		<path fill="#FFFFFF" d="M55.5,17.3c0.1-0.3,0.4-0.5,0.6-0.4l1.6,0.3c0.3,0.1,0.5,0.3,0.4,0.6c-0.1,0.3-0.3,0.5-0.6,0.4l-1.1-0.2
			l-0.2,0.8l1,0.2c0.3,0.1,0.5,0.3,0.4,0.6c-0.1,0.3-0.3,0.5-0.6,0.4l-1-0.2l-0.2,0.9l1.1,0.2c0.3,0.1,0.5,0.3,0.4,0.6
			c-0.1,0.3-0.3,0.5-0.6,0.4l-1.7-0.3c-0.3-0.1-0.5-0.3-0.4-0.6L55.5,17.3z"/>
		<path fill="#FFFFFF" d="M60,18.3c0.1-0.3,0.4-0.4,0.7-0.3l1.2,0.5c0.9,0.3,1.3,1.1,1,1.9c-0.2,0.7-0.8,1-1.5,0.9l0.5,1.3
			c0.1,0.2,0.1,0.3,0.1,0.5c-0.1,0.1-0.3,0.4-0.7,0.3c-0.3-0.1-0.3-0.2-0.4-0.4l-0.7-2l0,0l-0.5,1.3c-0.1,0.4-0.4,0.5-0.7,0.4
			c-0.3-0.1-0.4-0.4-0.3-0.7L60,18.3z M60.5,20.1l0.7,0.2c0.3,0.1,0.6,0,0.7-0.3c0.1-0.3-0.1-0.6-0.3-0.7l-0.7-0.2L60.5,20.1z"/>
		<path fill="#FFFFFF" d="M64.9,20.3c0.2-0.3,0.5-0.3,0.7-0.2l1.5,0.8c0.3,0.2,0.4,0.4,0.2,0.7c-0.2,0.3-0.4,0.3-0.7,0.2l-1-0.5
			L65.2,22l0.9,0.5c0.3,0.2,0.4,0.4,0.2,0.7c-0.1,0.3-0.4,0.3-0.7,0.2l-0.9-0.5l-0.4,0.8l1,0.6c0.3,0.2,0.4,0.4,0.2,0.7
			c-0.1,0.3-0.4,0.3-0.7,0.2l-1.5-0.8c-0.2-0.1-0.4-0.4-0.2-0.7L64.9,20.3z"/>
		<path fill="#FFFFFF" d="M68.9,22.6c0.2-0.3,0.5-0.3,0.8-0.1l1,0.8c1.1,0.9,1.1,2.3,0.3,3.2c-1,1.2-2.3,1.3-3.2,0.5l-1-0.8
			c-0.2-0.2-0.3-0.5-0.1-0.8L68.9,22.6z M67.7,25.8l0.5,0.4c0.7,0.5,1.3,0.3,1.8-0.3c0.5-0.6,0.5-1.3-0.1-1.8l-0.5-0.4L67.7,25.8z"
			/>
	</g>
	<circle fill="#FFFFFF" cx="50" cy="50" r="24.8"/>
	<g>
		<circle fill="#2B2B2B" cx="49.9" cy="32.8" r="1.6"/>
		<path fill="#2B2B2B" d="M50.5,34.2c1,0.7,1.9-0.7,2.3-1.2c0.4-0.6,2.5-3.3,2.7-3.5c0.2-0.3,0.5-0.6,0.9-0.4
			c0.3,0.2,0.3,0.5,0.1,0.8c-0.2,0.3-4.5,6.6-4.5,9.1c0,1.5,2.9,12.9,3,13.8c0.1,0.9-0.3,0.9-0.6,0.9c-0.3,0-0.6-0.1-0.7-0.6
			c-0.1-0.5-3.1-10.7-3.5-10.7h-0.4c-0.4,0-3.4,10.2-3.5,10.7c-0.1,0.5-0.4,0.6-0.7,0.6c-0.3,0-0.7-0.1-0.6-0.9
			c0.1-0.9,3-12.2,3-13.8c0-2.4-4.3-8.7-4.5-9.1c-0.2-0.3-0.3-0.6,0.1-0.8c0.4-0.3,0.7,0.1,0.9,0.4c0.2,0.3,2.2,2.9,2.7,3.5
			c0.4,0.6,1.3,1.9,2.3,1.2H50.5z"/>
	</g>
	<g>
		<path fill="#808080" d="M35.8,57c0-0.7,0.4-1.1,1.1-1.1h2.4c2.1,0,3.4,0.9,3.4,3.1c0,1.5-1.1,2.4-2.5,2.6l2.3,2.5
			c0.2,0.2,0.3,0.4,0.3,0.6c0,0.5-0.4,1.1-1,1.1c-0.2,0-0.6-0.1-0.8-0.4l-3-3.7h0v3c0,0.7-0.4,1.1-1,1.1c-0.6,0-1-0.4-1-1.1V57z
			 M37.9,60.2h1.4c0.8,0,1.3-0.5,1.3-1.2c0-0.8-0.5-1.2-1.3-1.2h-1.4V60.2z"/>
		<path fill="#808080" d="M44.5,57.1c0-0.7,0.3-1.2,1.1-1.2h4.6c0.7,0,1,0.5,1,0.9c0,0.5-0.3,0.9-1,0.9h-3.6v2H50c0.7,0,1,0.5,1,0.9
			c0,0.5-0.3,0.9-1,0.9h-3.4v2.1h3.7c0.7,0,1,0.5,1,0.9c0,0.5-0.3,0.9-1,0.9h-4.7c-0.6,0-1.1-0.4-1.1-1V57.1z"/>
		<path fill="#808080" d="M53,57c0-0.6,0.4-1.1,1.1-1.1h2.4c2,0,3.5,1.3,3.5,3.3c0,2-1.5,3.2-3.4,3.2H55v2.2c0,0.7-0.4,1.1-1,1.1
			c-0.6,0-1-0.4-1-1.1V57z M55,60.6h1.4c0.9,0,1.4-0.6,1.4-1.5c0-0.8-0.5-1.4-1.4-1.4H55V60.6z"/>
		<path fill="#808080" d="M64.1,61.5c-0.3,0-0.9-0.5-1.4-0.5c-0.3,0-0.5,0.1-0.5,0.4c0,0.7,2.8,0.6,2.8,2.5c0,1.1-0.9,1.9-2.3,1.9
			c-0.9,0-2.2-0.5-2.2-1.2c0-0.2,0.2-0.7,0.7-0.7c0.6,0,0.9,0.5,1.7,0.5c0.5,0,0.6-0.2,0.6-0.5c0-0.7-2.8-0.6-2.8-2.5
			c0-1.1,0.9-1.9,2.2-1.9c0.8,0,2,0.4,2,1.2C64.7,61.2,64.5,61.5,64.1,61.5z"/>
	</g>
</g>
</svg>
